<svg width="48" height="42" viewBox="0 0 48 42" fill="none" xmlns="http://www.w3.org/2000/svg">
<path d="M4.24164 0.603157C4.63629 1.68521 5.94495 4.26454 10.228 8.64099C12.355 10.8154 15.3772 12.8778 17.8954 14.4113C19.2246 12.7693 21.2491 11.72 23.5162 11.72C25.785 11.72 27.8078 12.771 29.1386 14.4148C31.6586 12.8796 34.6825 10.8171 36.8112 8.64273C42.7035 2.62252 42.9667 0.00183105 42.9667 0.00183105H4.07422L4.24164 0.603157Z" fill="#D8C1AA"/>
<path d="M18.8859 6.22533C19.3973 6.22533 19.8119 5.80721 19.8119 5.29145C19.8119 4.77568 19.3973 4.35757 18.8859 4.35757C18.3745 4.35757 17.96 4.77568 17.96 5.29145C17.96 5.80721 18.3745 6.22533 18.8859 6.22533Z" fill="white"/>
<path d="M28.1506 4.36091C28.6597 4.40054 29.0407 4.84852 29.0014 5.36198C28.9621 5.87544 28.5179 6.25969 28.0088 6.22003C27.4997 6.18043 27.1188 5.73243 27.1581 5.21897C27.1974 4.70551 27.6415 4.32128 28.1506 4.36091Z" fill="white"/>
<path d="M31.7162 4.59702C32.0971 4.62631 32.3808 4.9623 32.3517 5.3448C32.3227 5.72903 31.9895 6.01506 31.6102 5.98576C31.2293 5.95648 30.9456 5.62221 30.9747 5.23798C31.0038 4.85375 31.3352 4.56773 31.7162 4.59702Z" fill="white"/>
<path d="M15.4486 4.59703C15.8296 4.62633 16.1131 4.96231 16.0841 5.34482C16.055 5.72905 15.7219 6.01507 15.3426 5.98578C14.9617 5.95649 14.6781 5.62222 14.7071 5.238C14.7361 4.85376 15.0693 4.56774 15.4486 4.59703Z" fill="white"/>
<path d="M22.9969 4.25419L23.4718 3.57188L23.9109 4.27831L24.7258 4.1353L24.5396 4.94856L25.2162 5.42756L24.5157 5.87037L24.6575 6.69053L23.8528 6.50447L23.3762 7.18673L22.9371 6.48035L22.1239 6.62333L22.3084 5.8118L21.6318 5.33108L22.3323 4.88826L22.1905 4.06811L22.9969 4.25419Z" fill="white"/>
<path d="M43.5796 16.9165C45.2897 15.7172 46.6001 14.1665 46.9468 12.0352C47.2407 10.2381 46.7453 8.04474 46.7453 8.04474C46.7453 8.04474 44.813 11.4218 38.9378 14.444C37.0157 15.433 34.764 16.0912 33.3682 16.4426C33.305 16.2514 33.2384 16.0653 33.1718 15.8896C34.0978 15.5674 35.4115 15.0953 36.6826 14.5835C37.9759 14.0632 42.4486 11.5666 43.8786 8.92344C45.2606 6.36996 45.0659 4.13694 44.7721 2.87742C44.3483 1.06482 42.9662 0 42.9662 0C42.9662 0 42.7031 2.62069 36.8107 8.6409C34.682 10.8153 31.6581 12.8795 29.1382 14.413C30.1564 15.6725 30.768 17.2801 30.768 19.0323C30.768 22.0131 28.9998 24.5735 26.4645 25.7124C26.2919 25.6384 26.1109 25.5591 25.9383 25.4764C24.6997 24.8888 24.1991 23.4777 24.3528 22.6024C24.6501 20.8966 25.6427 20.2126 27.6245 20.5451C27.6245 20.5451 27.6228 19.1822 24.5869 17.2576C23.4952 16.565 21.9816 15.5191 21.7953 14.873C21.4981 15.2056 21.2281 15.7655 21.223 16.4823C21.2196 17.0801 21.5169 17.8693 22.0055 18.1054C22.4975 18.3414 22.694 18.35 23.2236 18.5137C20.8557 19.7302 19.2498 22.3784 19.9195 25.385C17.7344 24.1255 16.2635 21.7529 16.2635 19.034C16.2635 17.28 16.8768 15.6725 17.8967 14.4112C15.3767 12.8777 12.3563 10.8153 10.2292 8.6409C4.33687 2.62069 4.07378 0 4.07378 0C4.07378 0 2.69165 1.06482 2.26796 2.87742C1.97411 4.13694 1.77935 6.36996 3.16147 8.92344C4.59143 11.5648 9.06583 14.0615 10.3574 14.5835C11.6285 15.0953 12.944 15.5674 13.8682 15.8896C13.7999 16.067 13.7349 16.2514 13.6717 16.4426C12.2759 16.0912 10.0242 15.433 8.10225 14.444C2.22696 11.4218 0.294724 8.04474 0.294724 8.04474C0.294724 8.04474 -0.200721 10.2381 0.0931293 12.0352C0.439941 14.1665 1.75201 15.7172 3.46045 16.9165C5.42685 18.2966 9.64837 19.6268 11.6882 19.9059C12.2128 19.9783 12.6433 20.0282 12.9969 20.0627C12.9867 20.2591 12.9815 20.459 12.9781 20.6623C11.6763 20.5468 10.0447 20.285 8.53278 19.8818C2.43197 18.2587 0.0982544 15.3124 0.0982544 15.3124C0.0982544 15.3124 0.026501 17.4523 0.619325 19.0789C1.3232 21.0086 2.73437 22.0889 4.5453 22.9005C6.62961 23.8343 10.9177 24.1652 12.8722 24.0566C13.0191 24.048 13.1849 24.0411 13.3164 24.0359C13.3557 24.2186 13.3745 24.4133 13.4206 24.589C12.744 24.6062 11.9326 24.6872 11.2406 24.6752C9.80388 24.6493 6.79871 24.3512 5.2953 24.0377C2.92571 23.5432 1.19507 22.082 1.19507 22.082C1.19507 22.082 1.88186 24.5752 2.55669 25.6797C3.19051 26.7169 3.9781 27.4372 5.01854 27.9196C5.9804 28.3658 7.44965 28.4933 9.44337 28.3348C10.6683 28.2383 13.5863 27.7921 14.6968 27.6181C14.8078 27.8076 14.9206 27.9902 15.0351 28.1626C14.3175 28.3693 12.4656 28.8621 10.2105 29.1584C7.27538 29.5444 4.9895 29.1533 4.9895 29.1533C4.9895 29.1533 6.07608 30.5782 6.88242 31.2881C7.87505 32.1634 8.65751 32.4804 10.5897 32.408C12.8739 32.3219 15.6416 30.847 16.7845 30.3059C16.9263 30.4438 17.0852 30.5937 17.2578 30.754C16.5897 31.1847 14.883 32.1203 13.8836 32.5321C11.8608 33.3643 9.38014 33.6555 9.38014 33.6555C9.38014 33.6555 10.8853 35.5646 13.1865 35.5956C15.5698 35.6283 16.9075 34.5583 17.6046 34.0776C18.0334 33.783 18.7406 33.0542 19.2224 32.5338C19.3779 32.6716 19.5334 32.8112 19.6889 32.9491C19.243 33.6314 18.3751 34.7737 17.1501 35.5215C14.9616 36.8603 13.9519 36.8103 13.9519 36.8103C13.9519 36.8103 16.1199 38.5247 17.9206 38.1353C19.612 37.77 21.0248 35.7007 21.6279 34.6841C21.7971 34.8374 21.9559 34.9822 22.1046 35.1183C21.9781 35.4215 21.8039 35.792 21.5749 36.1814C20.1074 38.6849 18.6211 39.5413 18.6211 39.5413C18.6211 39.5413 19.2925 40.3959 21.8722 41.4487C22.489 41.7002 23.0391 41.869 23.4918 41.9862V42C23.5004 41.9983 23.5089 41.9948 23.5175 41.9931C23.526 41.9948 23.5345 41.9983 23.5431 42V41.9862C23.9958 41.869 24.5459 41.7002 25.1626 41.4487C27.7424 40.3959 28.4138 39.5413 28.4138 39.5413C28.4138 39.5413 26.9275 38.6849 25.4599 36.1814C25.231 35.792 25.0584 35.4215 24.9303 35.1183C25.0789 34.9822 25.2378 34.8358 25.407 34.6841C26.0101 35.7007 27.4246 37.77 29.1142 38.1353C30.9149 38.5247 33.0829 36.8103 33.0829 36.8103C33.0829 36.8103 32.075 36.8603 29.8847 35.5215C28.6598 34.772 27.7902 33.6296 27.3461 32.9491C27.5015 32.8112 27.657 32.6716 27.8124 32.5338C28.2942 33.0542 29.0015 33.783 29.4303 34.0776C30.1274 34.5566 31.4668 35.6283 33.8483 35.5956C36.1479 35.5646 37.6547 33.6555 37.6547 33.6555C37.6547 33.6555 35.1741 33.3643 33.1513 32.5321C32.1519 32.1203 30.4451 31.1847 29.7771 30.754C29.9497 30.5937 30.1085 30.4438 30.2504 30.3059C31.3933 30.847 34.1609 32.3219 36.4452 32.408C38.3757 32.4804 39.1581 32.1634 40.1508 31.2881C40.9554 30.5782 42.0437 29.1533 42.0437 29.1533C42.0437 29.1533 39.7578 29.5444 36.8227 29.1584C34.5675 28.8621 32.7156 28.3676 31.9981 28.1626C32.1126 27.9885 32.2236 27.8059 32.3364 27.6181C33.4468 27.7904 36.3648 28.2366 37.5898 28.3348C39.5835 28.4933 41.0528 28.3658 42.0146 27.9196C43.0551 27.4372 43.8427 26.7169 44.4765 25.6797C45.1513 24.5752 45.8381 22.082 45.8381 22.082C45.8381 22.082 44.1092 23.5432 41.7378 24.0377C40.2327 24.3512 37.2293 24.6493 35.7925 24.6752C35.1006 24.6872 34.2891 24.6062 33.6125 24.589C33.6604 24.4133 33.6775 24.2186 33.7168 24.0359C33.8483 24.0428 34.0123 24.0497 34.161 24.0566C36.1154 24.1652 40.4036 23.8343 42.4878 22.9005C44.2988 22.0889 45.71 21.0069 46.4139 19.0789C47.0067 17.4523 46.9349 15.3124 46.9349 15.3124C46.9349 15.3124 44.6012 18.2587 38.5004 19.8818C36.9884 20.2832 35.3569 20.5451 34.055 20.6623C34.0516 20.459 34.0465 20.2574 34.0363 20.0627C34.3899 20.0282 34.8204 19.9783 35.3449 19.9059C37.3899 19.6268 41.6114 18.2966 43.5796 16.9165Z" fill="#364BA8"/>
</svg>
