<svg width="24" height="24" viewBox="0 0 24 24" fill="none" xmlns="http://www.w3.org/2000/svg">
<circle cx="12" cy="12" r="11.5" stroke="#325ECD"/>
<path d="M18.8291 8.08758L15.9127 5.17092C15.8033 5.06154 15.6549 5 15.5 5H11.125C10.803 5 10.5417 5.26133 10.5417 5.58333C10.5417 5.90533 10.803 6.16667 11.125 6.16667H13.1667V9.66667H8.79167V5.58333C8.79167 5.26133 8.53033 5 8.20833 5H6.75C5.78487 5 5 5.78487 5 6.75V17.25C5 18.2151 5.78487 19 6.75 19H8.20833H15.7917H17.25C18.2151 19 19 18.2151 19 17.25V8.5C19 8.34542 18.9385 8.19696 18.8291 8.08758ZM15.2083 17.8333H8.79167V14.625H15.2083V17.8333ZM17.8333 17.25C17.8333 17.5717 17.5717 17.8333 17.25 17.8333H16.375V14.0417C16.375 13.7197 16.1137 13.4583 15.7917 13.4583H8.20833C7.88633 13.4583 7.625 13.7197 7.625 14.0417V17.8333H6.75C6.42829 17.8333 6.16667 17.5717 6.16667 17.25V6.75C6.16667 6.42829 6.42829 6.16667 6.75 6.16667H7.625V10.25C7.625 10.572 7.88633 10.8333 8.20833 10.8333H13.75C14.072 10.8333 14.3333 10.572 14.3333 10.25V6.16667H15.2585L17.8333 8.7415V17.25Z" fill="#325ECD"/>
<path d="M9.95833 7.0415C9.63633 7.0415 9.375 7.30284 9.375 7.62484V8.20817C9.375 8.53017 9.63633 8.7915 9.95833 8.7915C10.2803 8.7915 10.5417 8.53017 10.5417 8.20817V7.62484C10.5417 7.30284 10.2803 7.0415 9.95833 7.0415Z" fill="#325ECD"/>
</svg>
