<svg width="20" height="20" viewBox="0 0 20 20" fill="none" xmlns="http://www.w3.org/2000/svg">
<path d="M19.7558 4.41083L15.5896 0.244167C15.4333 0.0879167 15.2212 0 15 0H8.75C8.29 0 7.91667 0.373333 7.91667 0.833333C7.91667 1.29333 8.29 1.66667 8.75 1.66667H11.6667V6.66667H5.41667V0.833333C5.41667 0.373333 5.04333 0 4.58333 0H2.5C1.12125 0 0 1.12125 0 2.5V17.5C0 18.8787 1.12125 20 2.5 20H4.58333H15.4167H17.5C18.8787 20 20 18.8787 20 17.5V5C20 4.77917 19.9121 4.56708 19.7558 4.41083ZM14.5833 18.3333H5.41667V13.75H14.5833V18.3333ZM18.3333 17.5C18.3333 17.9596 17.9596 18.3333 17.5 18.3333H16.25V12.9167C16.25 12.4567 15.8767 12.0833 15.4167 12.0833H4.58333C4.12333 12.0833 3.75 12.4567 3.75 12.9167V18.3333H2.5C2.04042 18.3333 1.66667 17.9596 1.66667 17.5V2.5C1.66667 2.04042 2.04042 1.66667 2.5 1.66667H3.75V7.5C3.75 7.96 4.12333 8.33333 4.58333 8.33333H12.5C12.96 8.33333 13.3333 7.96 13.3333 7.5V1.66667H14.655L18.3333 5.345V17.5Z" fill="#E8F0FD"/>
<path d="M7.08333 2.9165C6.62333 2.9165 6.25 3.28984 6.25 3.74984V4.58317C6.25 5.04317 6.62333 5.41651 7.08333 5.41651C7.54333 5.41651 7.91667 5.04317 7.91667 4.58317V3.74984C7.91667 3.28984 7.54333 2.9165 7.08333 2.9165Z" fill="#E8F0FD"/>
</svg>
