<svg width="24" height="24" viewBox="0 0 24 24" fill="none" xmlns="http://www.w3.org/2000/svg">
<path fill-rule="evenodd" clip-rule="evenodd" d="M17.2795 15.8585L21.8488 20.4277C22.2549 20.8339 22.2549 21.4431 21.8488 21.8493C21.6457 22.0523 21.3411 22.1539 21.138 22.1539C20.9349 22.1539 20.6303 22.0523 20.4272 21.8493L15.858 17.28C14.3349 18.397 12.5072 19.1077 10.4765 19.1077C5.70416 19.1077 1.8457 15.2493 1.8457 10.477C1.8457 5.70465 5.70416 1.84619 10.4765 1.84619C15.2488 1.84619 19.1072 5.70465 19.1072 10.477C19.1072 12.5077 18.3965 14.437 17.2795 15.8585ZM10.4765 3.87677C6.82108 3.87677 3.87646 6.82139 3.87646 10.4768C3.87646 14.1322 6.82108 17.0768 10.4765 17.0768C12.3042 17.0768 13.9288 16.366 15.1472 15.1475C16.3657 13.9291 17.0765 12.3045 17.0765 10.4768C17.0765 6.82139 14.1318 3.87677 10.4765 3.87677Z" fill="#325ECD"/>
<mask id="mask0_423_2888" style="mask-type:alpha" maskUnits="userSpaceOnUse" x="1" y="1" width="22" height="22">
<path fill-rule="evenodd" clip-rule="evenodd" d="M17.2795 15.8585L21.8488 20.4277C22.2549 20.8339 22.2549 21.4431 21.8488 21.8493C21.6457 22.0523 21.3411 22.1539 21.138 22.1539C20.9349 22.1539 20.6303 22.0523 20.4272 21.8493L15.858 17.28C14.3349 18.397 12.5072 19.1077 10.4765 19.1077C5.70416 19.1077 1.8457 15.2493 1.8457 10.477C1.8457 5.70465 5.70416 1.84619 10.4765 1.84619C15.2488 1.84619 19.1072 5.70465 19.1072 10.477C19.1072 12.5077 18.3965 14.437 17.2795 15.8585ZM10.4765 3.87677C6.82108 3.87677 3.87646 6.82139 3.87646 10.4768C3.87646 14.1322 6.82108 17.0768 10.4765 17.0768C12.3042 17.0768 13.9288 16.366 15.1472 15.1475C16.3657 13.9291 17.0765 12.3045 17.0765 10.4768C17.0765 6.82139 14.1318 3.87677 10.4765 3.87677Z" fill="white"/>
</mask>
<g mask="url(#mask0_423_2888)">
<rect x="-0.185547" y="-0.184326" width="24.3692" height="24.3692" fill="#325ECD"/>
</g>
</svg>
